<?xml version="1.0" encoding="utf-8"?>
<!-- Generator: Adobe Illustrator 24.0.1, SVG Export Plug-In . SVG Version: 6.00 Build 0)  -->
<svg version="1.1" id="Layer_1" xmlns="http://www.w3.org/2000/svg" xmlns:xlink="http://www.w3.org/1999/xlink" x="0px" y="0px"
	 viewBox="0 0 500 500" style="enable-background:new 0 0 500 500;" xml:space="preserve">
<style type="text/css">
	.st0{fill:#6ED8FA;}
</style>
<g>
	<path class="st0" d="M46,46v408h408V46H46z M379.1,402.6c-15,11.4-34,17.1-57.1,17.1c-28.5,0-52-9.7-70.3-29.2
		c-18.4-19.5-27.5-46.1-27.5-79.9c0-35.7,9.2-63.5,27.7-83.3s42.7-29.7,72.8-29.7c26.3,0,47.6,7.8,64,23.3
		c9.8,9.2,17.1,22.4,22,39.6l-42.9,10.3c-2.5-11.1-7.8-19.9-15.9-26.4s-17.8-9.7-29.4-9.7c-15.9,0-28.8,5.7-38.7,17.1
		c-9.9,11.4-14.9,29.9-14.9,55.5c0,27.2,4.9,46.5,14.6,58c9.8,11.5,22.5,17.3,38.1,17.3c11.5,0,21.4-3.7,29.7-11
		c8.3-7.3,14.3-18.8,17.9-34.6l42,13.3C404.8,373.8,394.1,391.2,379.1,402.6z"/>
</g>
</svg>
