<?xml version="1.0" encoding="utf-8"?>
<!-- Generator: Adobe Illustrator 24.0.1, SVG Export Plug-In . SVG Version: 6.00 Build 0)  -->
<svg version="1.1" id="Layer_1" xmlns="http://www.w3.org/2000/svg" xmlns:xlink="http://www.w3.org/1999/xlink" x="0px" y="0px"
	 viewBox="0 0 500 500" style="enable-background:new 0 0 500 500;" xml:space="preserve">
<style type="text/css">
	.st0{fill:#6ED8FA;}
</style>
<g>
	<g>
		<path class="st0" d="M46,46v408h408V46H46z M402.3,404.6c-11.9,9.1-27.1,13.6-45.5,13.6c-22.7,0-41.4-7.8-56-23.3
			c-14.6-15.5-21.9-36.7-21.9-63.7c0-28.5,7.4-50.6,22.1-66.3c14.7-15.8,34-23.6,58-23.6c20.9,0,37.9,6.2,51,18.6
			c7.8,7.3,13.6,17.8,17.5,31.5l-34.2,8.2c-2-8.9-6.2-15.9-12.7-21c-6.4-5.1-14.2-7.7-23.4-7.7c-12.7,0-23,4.6-30.9,13.7
			c-7.9,9.1-11.8,23.8-11.8,44.2c0,21.6,3.9,37,11.7,46.2c7.8,9.2,17.9,13.8,30.3,13.8c9.2,0,17.1-2.9,23.7-8.8
			c6.6-5.8,11.4-15,14.2-27.5l33.5,10.6C422.8,381.7,414.2,395.5,402.3,404.6z"/>
	</g>
</g>
</svg>
