<?xml version="1.0" encoding="utf-8"?>
<!-- Generator: Adobe Illustrator 24.0.1, SVG Export Plug-In . SVG Version: 6.00 Build 0)  -->
<svg version="1.1" id="Layer_1" xmlns="http://www.w3.org/2000/svg" xmlns:xlink="http://www.w3.org/1999/xlink" x="0px" y="0px"
	 viewBox="0 0 500 500" style="enable-background:new 0 0 500 500;" xml:space="preserve">
<style type="text/css">
	.st0{fill:#BF89C8;}
</style>
<g>
	<g>
		<path class="st0" d="M46,46v408h408V46H46z M410.3,323.3c-3.8,7.2-8.7,12.8-14.5,16.9c-5.9,4.1-11.8,6.8-17.9,8.1
			c-8.2,1.6-20.2,2.5-35.8,2.5h-22.5v64.5h-34.5V244.2h55.4c21,0,34.7,0.9,41.1,2.6c9.8,2.6,18,8.2,24.6,16.7
			c6.6,8.6,9.9,19.7,9.9,33.3C416,307.3,414.1,316.2,410.3,323.3z M361,274.3c-4.1-0.8-12.4-1.2-24.9-1.2h-16.7v48.5h18.9
			c13.6,0,22.7-0.9,27.3-2.7c4.6-1.8,8.2-4.6,10.8-8.4c2.6-3.8,3.9-8.2,3.9-13.3c0-6.2-1.8-11.4-5.5-15.4
			C371.3,277.8,366.6,275.3,361,274.3z"/>
	</g>
</g>
</svg>
