<?xml version="1.0" encoding="utf-8"?>
<!-- Generator: Adobe Illustrator 24.0.1, SVG Export Plug-In . SVG Version: 6.00 Build 0)  -->
<svg version="1.1" id="Layer_1" xmlns="http://www.w3.org/2000/svg" xmlns:xlink="http://www.w3.org/1999/xlink" x="0px" y="0px"
	 viewBox="0 0 500 500" style="enable-background:new 0 0 500 500;" xml:space="preserve">
<style type="text/css">
	.st0{fill:#BF89C8;}
</style>
<g>
	<path class="st0" d="M326.3,237c-5.2-1-15.6-1.5-31.2-1.5h-20.9v60.9h23.7c17.1,0,28.5-1.1,34.3-3.4c5.8-2.2,10.3-5.8,13.5-10.5
		c3.3-4.8,4.9-10.3,4.9-16.7c0-7.8-2.3-14.3-6.9-19.3C339.2,241.5,333.4,238.3,326.3,237z M46,46v408h408V46H46z M388.2,298.6
		c-4.8,9-10.9,16-18.2,21.2c-7.4,5.1-14.9,8.5-22.5,10.2c-10.4,2.1-25.3,3.1-45,3.1h-28.3v81h-43.4V199.3h69.6
		c26.4,0,43.6,1.1,51.6,3.2c12.3,3.2,22.6,10.2,30.9,21s12.5,24.7,12.5,41.8C395.3,278.5,392.9,289.6,388.2,298.6z"/>
</g>
</svg>
