<?xml version="1.0" encoding="utf-8"?>
<!-- Generator: Adobe Illustrator 24.0.1, SVG Export Plug-In . SVG Version: 6.00 Build 0)  -->
<svg version="1.1" id="Layer_1" xmlns="http://www.w3.org/2000/svg" xmlns:xlink="http://www.w3.org/1999/xlink" x="0px" y="0px"
	 viewBox="0 0 500 500" style="enable-background:new 0 0 500 500;" xml:space="preserve">
<style type="text/css">
	.st0{fill:#FFCFE0;}
</style>
<g>
	<g>
		<path class="st0" d="M46,46v408h408V46H46z M405.2,387.3c-6.8,10.7-16.5,18.7-29,24c-12.5,5.2-28.1,7.8-46.7,7.8
			c-27.2,0-48-6.3-62.5-18.8c-14.6-12.5-23.2-30.8-26.1-54.9l42.2-4.1c2.5,14.2,7.7,24.6,15.5,31.2c7.8,6.6,18.2,10,31.4,10
			c14,0,24.5-3,31.6-8.9c7.1-5.9,10.6-12.8,10.6-20.7c0-5.1-1.5-9.4-4.5-13c-3-3.6-8.2-6.7-15.6-9.3c-5.1-1.8-16.7-4.9-34.7-9.4
			c-23.2-5.8-39.6-12.8-48.9-21.2c-13.2-11.8-19.8-26.2-19.8-43.2c0-10.9,3.1-21.2,9.3-30.7c6.2-9.5,15.1-16.8,26.8-21.8
			c11.7-5,25.8-7.5,42.3-7.5c27,0,47.2,5.9,60.9,17.7c13.6,11.8,20.8,27.6,21.5,47.3l-43.4,1.9c-1.9-11-5.8-19-11.9-23.8
			c-6.1-4.8-15.3-7.3-27.5-7.3c-12.6,0-22.5,2.6-29.6,7.8c-4.6,3.3-6.9,7.8-6.9,13.3c0,5.1,2.1,9.4,6.4,13
			c5.5,4.6,18.8,9.4,39.8,14.4s36.7,10.1,46.8,15.5c10.1,5.3,18,12.6,23.7,21.8s8.6,20.6,8.6,34.2
			C415.4,365.1,412,376.6,405.2,387.3z"/>
	</g>
</g>
</svg>
